<svg xmlns="http://www.w3.org/2000/svg" viewBox="0 0 100 100" id="calendar"><path d="M92 26.5h-7v-2c0-3.86-3.14-7-7-7s-7 3.14-7 7v2h-8v-2c0-3.86-3.14-7-7-7s-7 3.14-7 7v2h-8v-2c0-3.86-3.14-7-7-7s-7 3.14-7 7v2h-7c-.04 0-.07.01-.11.01-.08 0-.15.01-.23.02-.06.01-.11.02-.17.04l-.2.06c-.06.02-.11.05-.17.07-.06.03-.12.06-.18.1-.05.03-.1.07-.15.1-.05.04-.11.08-.16.13l-.13.13c-.04.05-.09.1-.13.15-.04.05-.07.11-.1.16s-.06.11-.09.17c-.03.07-.06.13-.08.2-.01.04-.03.07-.04.11l-12 43c-.17.6-.04 1.25.33 1.75.4.51.98.8 1.61.8h10v7c0 1.1.9 2 2 2h72c1.1 0 2-.9 2-2v-52c0-1.1-.9-2-2-2zm-17-2c0-1.65 1.35-3 3-3s3 1.35 3 3v2h-6v-2zm-22 0c0-1.65 1.35-3 3-3s3 1.35 3 3v2h-6v-2zm-22 0c0-1.65 1.35-3 3-3s3 1.35 3 3v2h-6v-2zm-20.37 45L18 43.11V69.5h-7.37zm79.37 9H22v-48h15v4c0 1.1.9 2 2 2s2-.9 2-2v-4h18v4c0 1.1.9 2 2 2s2-.9 2-2v-4h18v4c0 1.1.9 2 2 2s2-.9 2-2v-4h5v48zM45.96 47.11c.03.13.04.26.04.39s-.01.26-.04.39c-.02.13-.06.25-.11.38-.05.12-.12.23-.19.34-.07.11-.15.21-.25.3-.09.1-.19.18-.3.25-.11.08-.22.14-.35.19-.12.05-.24.09-.37.11-.13.03-.26.04-.39.04s-.26-.01-.39-.04c-.13-.02-.26-.06-.38-.11s-.23-.11-.34-.19c-.11-.07-.21-.15-.3-.25-.1-.09-.18-.19-.25-.3s-.14-.22-.19-.34c-.05-.13-.09-.25-.11-.38-.03-.13-.04-.26-.04-.39s.01-.26.04-.39c.02-.13.06-.25.11-.37.05-.13.12-.24.19-.35.07-.11.15-.21.25-.3.09-.1.19-.18.3-.25.11-.07.22-.14.34-.19.13-.05.25-.08.38-.11.64-.13 1.34.08 1.8.55.1.09.18.19.25.3.07.11.14.22.19.35.05.12.09.24.11.37zm12 0a1.966 1.966 0 0 1-.55 1.8c-.09.1-.19.18-.3.25-.11.07-.22.14-.35.19-.12.05-.24.09-.37.11a1.966 1.966 0 0 1-1.8-.55 1.966 1.966 0 0 1-.55-1.8c.02-.13.06-.25.11-.38.05-.12.12-.23.19-.34.07-.11.15-.21.25-.3.09-.1.19-.18.3-.25.11-.07.22-.14.34-.19.13-.05.25-.08.38-.11a2.047 2.047 0 0 1 1.15.11c.13.05.24.12.35.19.11.07.21.15.3.25.1.09.18.19.25.3.07.11.14.22.19.34.05.13.09.25.11.38zm11.45-1.02c.38.37.59.88.59 1.41 0 .53-.21 1.04-.59 1.41-.37.38-.88.59-1.41.59s-1.04-.21-1.41-.59c-.38-.37-.59-.88-.59-1.41 0-.53.21-1.04.59-1.41.74-.75 2.08-.75 2.82 0zm12.55 1.02c.03.13.04.26.04.39s-.01.26-.04.39c-.02.13-.06.25-.11.37-.05.13-.12.24-.19.35-.07.11-.15.21-.25.3-.09.1-.19.18-.3.25-.11.07-.22.14-.34.19-.13.05-.25.09-.38.11a1.966 1.966 0 0 1-1.8-.55c-.1-.09-.18-.19-.25-.3s-.14-.22-.19-.35c-.05-.12-.09-.24-.11-.37a1.966 1.966 0 0 1 .55-1.8c.09-.1.19-.18.3-.25.11-.07.22-.14.34-.19.12-.05.25-.09.38-.11.25-.05.52-.05.78 0 .13.02.25.06.38.11.12.05.23.12.34.19.11.07.21.15.3.25.1.09.18.19.25.3.07.11.14.22.19.35.05.12.09.24.11.37zm-48 10A1.998 1.998 0 0 1 32 59.5c-.54 0-1.04-.21-1.41-.59-.38-.37-.59-.88-.59-1.41s.21-1.04.59-1.41c.09-.1.19-.18.3-.25.11-.08.22-.14.35-.19a2.047 2.047 0 0 1 1.15-.11c.13.02.26.06.38.11s.23.11.34.19a1.789 1.789 0 0 1 .55.55c.08.11.14.22.19.34.05.12.09.25.11.38zm11.45-1.02c.38.37.59.88.59 1.41s-.21 1.04-.59 1.41c-.37.38-.88.59-1.41.59-.53 0-1.04-.21-1.41-.59a1.966 1.966 0 0 1-.55-1.8c.03-.13.06-.26.11-.38s.12-.23.19-.34c.07-.11.15-.21.25-.3.09-.1.19-.18.3-.25.11-.08.22-.14.34-.19.13-.05.25-.09.38-.11.26-.05.52-.05.78 0 .13.02.25.06.38.11.12.05.23.11.34.19.11.07.21.15.3.25zm12 0c.38.37.59.88.59 1.41s-.21 1.04-.59 1.41c-.37.38-.87.59-1.41.59s-1.04-.21-1.41-.59a1.966 1.966 0 0 1-.55-1.8c.02-.13.06-.26.11-.38s.11-.23.19-.34c.07-.11.15-.21.25-.3.09-.1.19-.18.3-.25.11-.08.22-.14.34-.19.12-.05.25-.09.38-.11.65-.13 1.34.08 1.8.55zm12 0a1.966 1.966 0 0 1 .55 1.8c-.02.13-.06.26-.11.38s-.11.23-.19.34c-.07.11-.15.21-.25.3-.09.1-.19.18-.3.25-.11.08-.23.14-.34.19-.12.05-.25.09-.38.11a2.03 2.03 0 0 1-1.16-.11c-.24-.1-.46-.25-.64-.44-.1-.09-.18-.19-.26-.3-.07-.11-.13-.22-.18-.34-.05-.12-.09-.25-.11-.38-.03-.12-.04-.26-.04-.39s.01-.26.04-.39c.02-.13.06-.26.11-.38s.11-.23.19-.34c.07-.11.15-.21.25-.3.46-.47 1.15-.69 1.8-.55.13.02.25.06.37.11.13.05.24.12.35.19.11.07.21.15.3.25zm12 0a1.966 1.966 0 0 1 .55 1.8c-.02.13-.06.26-.11.38s-.11.23-.19.34c-.07.11-.15.21-.25.3-.09.1-.19.18-.3.25-.11.08-.22.14-.34.19s-.25.09-.38.11a2.03 2.03 0 0 1-1.16-.11c-.24-.1-.46-.25-.64-.44-.1-.09-.18-.19-.25-.3-.08-.11-.14-.22-.19-.34-.05-.12-.09-.25-.11-.38-.03-.13-.04-.26-.04-.39s.01-.26.04-.39c.02-.13.06-.26.11-.38s.12-.23.19-.34c.07-.11.15-.21.25-.3.46-.47 1.15-.68 1.8-.55.13.02.25.06.38.11.12.05.23.12.34.19.11.07.21.15.3.25zm-47.99 10c.37.37.58.88.58 1.41s-.21 1.04-.58 1.41c-.19.19-.41.34-.65.44-.25.1-.5.15-.77.15-.53 0-1.04-.21-1.41-.59-.38-.37-.59-.88-.59-1.41s.21-1.04.59-1.41c.74-.75 2.08-.75 2.83 0zm11.99 0c.38.37.59.88.59 1.41s-.21 1.04-.59 1.41c-.37.38-.87.59-1.41.59s-1.04-.21-1.41-.59c-.38-.37-.59-.88-.59-1.41s.21-1.04.59-1.41c.46-.47 1.15-.69 1.8-.55.13.02.25.06.38.11.12.05.23.12.34.19s.21.15.3.25zm12 0c.38.37.59.88.59 1.41 0 .27-.05.52-.15.77-.1.24-.25.46-.44.64-.09.1-.19.18-.3.25-.11.08-.23.14-.34.19-.12.05-.25.09-.38.11a2.03 2.03 0 0 1-1.16-.11c-.24-.1-.46-.25-.64-.44-.38-.37-.59-.88-.59-1.41s.21-1.04.59-1.41c.09-.1.19-.18.3-.25.11-.07.22-.14.34-.19.12-.05.25-.09.38-.11.65-.13 1.34.08 1.8.55z"></path></svg>