<svg xmlns="http://www.w3.org/2000/svg" width="48" height="48" viewBox="0 0 48 48" id="electricity"><path d="M 24 0 C 10.751089 0 0 10.751088 0 24 C 0 37.248912 10.751088 48 24 48 C 37.248912 48 48 37.248912 48 24 C 48 10.751088 37.248912 0 24 0 z M 24 1 C 36.708472 1 47 11.291528 47 24 C 47 36.708472 36.708472 47 24 47 C 11.291529 47 1 36.708472 1 24 C 1 11.291529 11.291529 1 24 1 z M 19.5 11 C 18.673 11 18 11.673 18 12.5 L 18 17 L 15.5 17 C 14.673 17 14 17.673 14 18.5 L 14 22.792969 C 14 24.643969 15.109125 26.283703 16.828125 26.970703 L 18.685547 27.712891 C 18.876547 27.788891 19 27.972734 19 28.177734 L 19 30.5 C 19 31.327 19.673 32 20.5 32 L 21.5 32 L 21.5 33.5 C 21.5 33.776 21.724 34 22 34 L 22.5 34 L 22.5 36.5 C 22.5 36.776 22.724 37 23 37 L 25 37 C 25.276 37 25.5 36.776 25.5 36.5 L 25.5 34 L 26 34 C 26.276 34 26.5 33.776 26.5 33.5 L 26.5 32 L 27.5 32 C 28.327 32 29 31.327 29 30.5 L 29 28.177734 C 29 27.971734 29.124453 27.788891 29.314453 27.712891 L 31.171875 26.970703 C 32.890875 26.283703 34 24.643969 34 22.792969 L 34 18.5 C 34 17.673 33.327 17 32.5 17 L 30 17 L 30 12.5 C 30 11.673 29.327 11 28.5 11 C 27.673 11 27 11.673 27 12.5 L 27 17 L 21 17 L 21 12.5 C 21 11.673 20.327 11 19.5 11 z M 19.5 12 C 19.776 12 20 12.224 20 12.5 L 20 17 L 19 17 L 19 12.5 C 19 12.224 19.224 12 19.5 12 z M 28.5 12 C 28.776 12 29 12.224 29 12.5 L 29 17 L 28 17 L 28 12.5 C 28 12.224 28.224 12 28.5 12 z M 15.5 18 L 18.5 18 L 20.5 18 L 27.5 18 L 29.5 18 L 32.5 18 C 32.776 18 33 18.224 33 18.5 L 33 22.792969 C 33 24.231969 32.136781 25.507969 30.800781 26.042969 L 28.943359 26.785156 C 28.370359 27.014156 28 27.560734 28 28.177734 L 28 30.5 C 28 30.776 27.776 31 27.5 31 L 26 31 L 22 31 L 20.5 31 C 20.224 31 20 30.776 20 30.5 L 20 28.177734 C 20 27.560734 19.629641 27.012203 19.056641 26.783203 L 17.199219 26.042969 C 15.863219 25.508969 15 24.232969 15 22.792969 L 15 18.5 C 15 18.224 15.224 18 15.5 18 z M 22.912109 19.960938 C 22.842739 19.964737 22.774938 19.983625 22.710938 20.015625 C 22.584937 20.080625 22.491078 20.195031 22.455078 20.332031 L 21.308594 24.712891 C 21.244594 24.959891 21.375284 25.215641 21.613281 25.306641 L 23.013672 25.84375 L 21.939453 28.644531 C 21.853453 28.868531 21.938578 29.121047 22.142578 29.248047 C 22.224578 29.299047 22.31525 29.324219 22.40625 29.324219 C 22.54125 29.324219 22.676438 29.26906 22.773438 29.164062 L 26.431641 25.212891 C 26.544641 25.090891 26.590734 24.920766 26.552734 24.759766 C 26.514734 24.598766 26.399141 24.464297 26.244141 24.404297 L 25.394531 24.078125 L 26.636719 21.966797 C 26.710719 21.840797 26.725724 21.686828 26.677734 21.548828 C 26.629734 21.410828 26.523719 21.298094 26.386719 21.246094 L 23.117188 19.992188 C 23.050687 19.967188 22.981484 19.957188 22.912109 19.960938 z M 23.28125 21.126953 L 25.476562 21.96875 L 24.234375 24.082031 C 24.160375 24.208031 24.145359 24.362 24.193359 24.5 C 24.242359 24.639 24.349328 24.749734 24.486328 24.802734 L 25.197266 25.074219 L 23.802734 26.580078 L 24.126953 25.736328 C 24.173953 25.612328 24.171218 25.474516 24.117188 25.353516 C 24.063188 25.232516 23.962844 25.136844 23.839844 25.089844 L 22.390625 24.533203 L 23.28125 21.126953 z M 22.5 32 L 25.5 32 L 25.5 33 L 25 33 L 23 33 L 22.5 33 L 22.5 32 z M 23.5 34 L 24.5 34 L 24.5 36 L 23.5 36 L 23.5 34 z "></path></svg>