<svg xmlns="http://www.w3.org/2000/svg" data-name="Layer 1" viewBox="0 0 128 128" id="impact"><path d="M126 10H2a2 2 0 0 0 0 4h26.46L11.484 90.026c.173-.005.343-.026.517-.026a15.9 15.9 0 0 1 6.03 1.19L43.618 14h7.5l4.598 76.342a15.935 15.935 0 0 1 6.57 0L66.883 14h12.234l4.598 76.342a15.935 15.935 0 0 1 6.57 0L94.883 14h12.234l4.598 76.342a15.935 15.935 0 0 1 6.57 0L122.883 14H126a2 2 0 0 0 0-4zm-11 84a12 12 0 1 0 12 12 12.013 12.013 0 0 0-12-12zM12 94a12 12 0 1 0 12 12 12.013 12.013 0 0 0-12-12zm47 0a12 12 0 1 0 12 12 12.013 12.013 0 0 0-12-12zm28 0a12 12 0 1 0 12 12 12.013 12.013 0 0 0-12-12z"></path></svg>