<svg xmlns="http://www.w3.org/2000/svg" enable-background="new 0 0 32 32" viewBox="0 0 32 32" id="gear"><path d="M30.62387,12.6667l-2.61838-1.24861c-0.08561-0.22179-0.17823-0.44307-0.27786-0.66386l0.97025-2.73803c0.19776-0.55922,0.05707-1.18202-0.36247-1.60107l-2.75105-2.75055c-0.41904-0.41904-1.04235-0.55922-1.60107-0.36247l-2.73753,0.97025c-0.22079-0.09963-0.44207-0.19225-0.66386-0.27786L19.3333,1.37613C19.07797,0.84094,18.53778,0.5,17.94501,0.5h-3.89002c-0.59276,0-1.13296,0.34094-1.38829,0.87613l-1.24861,2.61838c-0.22179,0.08561-0.44307,0.17823-0.66386,0.27786L8.0167,3.30212C7.45698,3.10436,6.83467,3.24504,6.41563,3.66458L3.66458,6.41513C3.24504,6.83417,3.10436,7.45698,3.30212,8.0162l0.97025,2.73803c-0.09963,0.22079-0.19225,0.44207-0.27786,0.66386L1.37613,12.6667C0.84094,12.92203,0.5,13.46223,0.5,14.05499v3.89002c0,0.59277,0.34094,1.13296,0.87613,1.38829l2.61838,1.24861c0.08561,0.22178,0.17823,0.44307,0.27786,0.66386L3.30212,23.9833c-0.19776,0.55872-0.05707,1.18203,0.36247,1.60107l2.75105,2.75105c0.41904,0.41904,1.04235,0.55922,1.60107,0.36247l2.73753-0.97025c0.22079,0.09963,0.44207,0.19225,0.66386,0.27786l1.24861,2.61838C12.92203,31.15906,13.46223,31.5,14.05499,31.5h3.89002c0.59277,0,1.13296-0.34094,1.38829-0.87613l1.24861-2.61838c0.22178-0.08561,0.44307-0.17823,0.66386-0.27786l2.73753,0.97025c0.55772,0.19575,1.18152,0.05657,1.60107-0.36247l2.75105-2.75105c0.41954-0.41904,0.56022-1.04235,0.36247-1.60107l-0.97025-2.73753c0.09963-0.22079,0.19225-0.44207,0.27786-0.66386l2.61838-1.24861C31.15906,19.07797,31.5,18.53778,31.5,17.94501v-3.89002C31.5,13.46223,31.15906,12.92203,30.62387,12.6667z M28.42403,16.97426l-2.31699,1.10493c-0.38199,0.18223-0.67237,0.51366-0.80203,0.91668c-0.1557,0.48363-0.36097,0.97376-0.60879,1.45688c-0.19375,0.37699-0.22329,0.81705-0.08211,1.21657l0.86011,2.42663l-1.37828,1.37828l-2.42663-0.86011c-0.39952-0.14218-0.83958-0.11214-1.21657,0.08211c-0.48312,0.24782-0.97326,0.45308-1.45688,0.60879c-0.40302,0.12967-0.73445,0.42004-0.91668,0.80203l-1.10493,2.31699h-1.94851l-1.10493-2.31699c-0.18224-0.38199-0.51366-0.67237-0.91668-0.80203c-0.48362-0.1557-0.97376-0.36097-1.45688-0.60879c-0.37649-0.19425-0.81605-0.22279-1.21657-0.08211l-2.42663,0.86011l-1.37828-1.37828l0.86011-2.42663c0.14118-0.39952,0.11164-0.83958-0.08211-1.21657c-0.24782-0.48312-0.45308-0.97326-0.60879-1.45688c-0.12967-0.40302-0.42004-0.73445-0.80203-0.91668l-2.31699-1.10493v-1.94851l2.31699-1.10493c0.38199-0.18224,0.67237-0.51366,0.80203-0.91668c0.1557-0.48362,0.36097-0.97376,0.60879-1.45688c0.19375-0.37699,0.22329-0.81705,0.08211-1.21657L6.52577,7.90405l1.37828-1.37828l2.42663,0.86011c0.39902,0.14168,0.83908,0.11164,1.21657-0.08211c0.48312-0.24782,0.97326-0.45308,1.45688-0.60879c0.40302-0.12967,0.73445-0.42004,0.91668-0.80203l1.10493-2.31699h1.94851l1.10493,2.31699c0.18223,0.38199,0.51366,0.67237,0.91668,0.80203c0.48363,0.1557,0.97376,0.36097,1.45688,0.60879c0.37749,0.19375,0.81655,0.22429,1.21657,0.08211l2.42663-0.86011l1.37828,1.37828l-0.86011,2.42663c-0.14118,0.39952-0.11164,0.83958,0.08211,1.21657c0.24782,0.48312,0.45308,0.97326,0.60879,1.45688c0.12967,0.40302,0.42004,0.73445,0.80203,0.91668l2.31699,1.10493V16.97426z"></path><path d="M16,7.68777c-4.58341,0-8.31223,3.72881-8.31223,8.31223S11.41659,24.31223,16,24.31223S24.31223,20.58341,24.31223,16S20.58341,7.68777,16,7.68777z M16,21.23626c-2.88723,0-5.23626-2.34903-5.23626-5.23626S13.11277,10.76374,16,10.76374S21.23626,13.11277,21.23626,16S18.88723,21.23626,16,21.23626z"></path></svg>