<svg xmlns="http://www.w3.org/2000/svg" data-name="Layer 1" viewBox="0 0 64 64" id="personality"><path fill="#2d3142" d="M22.252 33h19.5A10.252 10.252 0 0 1 52 43.252V61H12V43.252A10.252 10.252 0 0 1 22.252 33Z"></path><path fill="#ff9f1c" d="m32 41-2.6 2.5a3 3 0 0 0 5.2 0Z"></path><path fill="#247ba0" d="M38.222 47 32 41l-6.222 6L24 33h16l-1.778 14z"></path><path fill="#f71735" d="m32 41 4-8h-8l4 8z"></path><path fill="#41ead4" d="M36 61h-8l1.671-14.027A2.361 2.361 0 0 1 32 45a2.361 2.361 0 0 1 2.329 1.973Z"></path><path fill="#ffbf69" d="m36 9-14 4v.16c-1.66 0-3 1.84-3 4.11s1.34 4.11 3 4.11a11.18 11.18 0 0 0 1.37 5.36 10.785 10.785 0 0 0 3.77 3.97l2.75 1.69a4.01 4.01 0 0 0 4.22 0l2.75-1.69A10.95 10.95 0 0 0 42 21.38a2.659 2.659 0 0 0 2.12-1.2 5.02 5.02 0 0 0 .88-2.91c0-2.27-1.34-4.11-3-4.11v-.24Z"></path><path fill="#2d3142" d="M43 13a7.242 7.242 0 0 1-5.121-2.121L36 9a13.658 13.658 0 0 1-9.657 4H21v-3c0-4.972 4.03-7 9-7h4c4.972 0 9 2.03 9 7Z"></path><path d="M28 19h2a3 3 0 0 0-6 0h2a1 1 0 0 1 2 0zm9-1a1 1 0 0 1 1 1h2a3 3 0 0 0-6 0h2a1 1 0 0 1 1-1zm-5 11a5.006 5.006 0 0 0 5-5h-2a3 3 0 0 1-6 0h-2a5.006 5.006 0 0 0 5 5z"></path><path d="M12 62h40a1 1 0 0 0 1-1V43.252A11.265 11.265 0 0 0 41.748 32h-5.077l.714-.439a12 12 0 0 0 5.585-9.332 3.914 3.914 0 0 0 1.962-1.464A6.01 6.01 0 0 0 46 17.27a5.408 5.408 0 0 0-2-4.421V10c0-5.01-3.739-8-10-8h-4c-6.263 0-10 2.992-10 8v2.847a5.408 5.408 0 0 0-2 4.421c0 2.437 1.271 4.424 3.03 4.965a12.228 12.228 0 0 0 1.47 4.991 11.85 11.85 0 0 0 4.122 4.338l.708.438h-5.078A11.265 11.265 0 0 0 11 43.252V61a1 1 0 0 0 1 1Zm17.126-2 1.532-12.863a1.361 1.361 0 0 1 2.677-.046L34.874 60ZM32 42.389l1.219 1.176a1.926 1.926 0 0 1-2.438 0ZM29.618 34h4.764L32 38.764Zm9.6 13.126L40.881 34h.867A9.252 9.252 0 0 1 51 43.252V60h-7V44a1 1 0 0 0-2 0v16h-5.112l-1.573-13.191a3.347 3.347 0 0 0-.818-1.69c.06-.049.117-.1.175-.153l2.856 2.754a1 1 0 0 0 1.686-.594ZM38.865 34l-1.384 10.9-4.258-4.11 3.4-6.79ZM22 10c0-5.222 5.014-6 8-6h4c2.988 0 8 .78 8 6v1.919a6.2 6.2 0 0 1-3.414-1.749l-1.879-1.877a1 1 0 0 0-1.414 0A12.573 12.573 0 0 1 26.343 12H22Zm2.248 16.259A10.214 10.214 0 0 1 23 21.38a1 1 0 0 0-1-1c-1.084 0-2-1.424-2-3.11s.916-3.11 2-3.11a.964.964 0 0 0 .51-.16h3.833a14.554 14.554 0 0 0 9.634-3.609l1.2 1.2a8.179 8.179 0 0 0 4.083 2.224.982.982 0 0 0 .745.35c1.084 0 2 1.424 2 3.11a4.052 4.052 0 0 1-.687 2.32A1.731 1.731 0 0 1 42 20.38a1 1 0 0 0-1 1 10 10 0 0 1-4.664 8.478l-2.75 1.69a3.057 3.057 0 0 1-3.172 0l-2.748-1.689a9.827 9.827 0 0 1-3.418-3.598ZM27.382 34l3.395 6.79-4.258 4.11L25.135 34ZM13 43.252A9.252 9.252 0 0 1 22.252 34h.867l1.667 13.126a1 1 0 0 0 1.686.594l2.856-2.754c.059.053.118.107.18.157a3.437 3.437 0 0 0-.83 1.731L27.112 60H22V44a1 1 0 0 0-2 0v16h-7Z"></path></svg>