<svg xmlns="http://www.w3.org/2000/svg" width="48" height="48" id="electricity"><path style="line-height:normal;text-indent:0;text-align:start;text-decoration-line:none;text-decoration-style:solid;text-decoration-color:#000;text-transform:none;block-progression:tb;isolation:auto;mix-blend-mode:normal" d="M24 0C10.751 0 0 10.751 0 24s10.751 24 24 24 24-10.751 24-24S37.249 0 24 0zm0 1c12.708 0 23 10.291 23 23S36.708 47 24 47 1 36.709 1 24 11.292 1 24 1zm-1.5 6.994a.5.5 0 0 0-.477.354l-2 6.5a.5.5 0 0 0-.023.146v.037a.5.5 0 0 0-.146.09l-6.688 6a.5.5 0 0 0-.16.46.5.5 0 0 0-.006.08v.825a.5.5 0 1 0 1 0v-.492h1v.492a.5.5 0 1 0 1 0v-.492h2.88l-5.714 5.127a.5.5 0 0 0-.16.46.5.5 0 0 0-.006.08v.825a.5.5 0 1 0 1 0v-.492h1v.492a.5.5 0 1 0 1 0v-.492h3.691l-4.5 9H9v1h8.342l.006.006.006-.006H30.64l.005.006.006-.006H39v-1h-6.191l-4.5-9H32v.492a.5.5 0 1 0 1 0v-.492h1v.492a.5.5 0 1 0 1 0v-.826a.5.5 0 0 0-.008-.08.5.5 0 0 0 0-.004.5.5 0 0 0-.156-.453l-5.69-5.129H32v.492a.5.5 0 1 0 1 0v-.492h1v.492a.5.5 0 1 0 1 0v-.826a.5.5 0 0 0-.008-.08.5.5 0 0 0-.156-.457l-6.656-6a.5.5 0 0 0-.18-.102v-.027a.5.5 0 0 0-.021-.146l-2-6.5a.5.5 0 0 0-.479-.354h-3zm.37 1h2.26l1.847 6h-5.954l1.846-6zm-1.036 7h4.34l-2.17 1.844-2.17-1.844zm6.166.313 5.2 4.687H28v-4.687zm-8 .029v4.658h-5.193L20 16.336zm1 .262 2.23 1.896L21 20.39v-3.791zm6 .007v3.778l-2.225-1.889L27 16.605zm-2.996 2.545 2.172 1.844h-4.344l2.172-1.844zm-2.172 2.844h4.344l-2.172 1.844-2.172-1.844zm6.168.313 5.2 4.687H28v-4.687zm-8 .027v4.66h-5.193L20 22.334zm1 .266 2.23 1.894L21 26.39v-3.79zm6 .005v3.778l-2.223-1.889L27 22.605zm-2.996 2.545 2.17 1.844h-4.34l2.17-1.844zm-2.28 2.844h4.546l-2.274 2.195-2.271-2.195zm5.635.338 4.332 8.662h-.646l-6.328-6.111 2.642-2.551zm-6.72.004 2.638 2.547-6.328 6.111h-.64l4.33-8.658zm3.357 3.242 5.61 5.416H18.388l5.607-5.416z" color="#000" font-family="sans-serif" font-weight="400" overflow="visible"></path></svg>