<svg xmlns="http://www.w3.org/2000/svg" width="32" height="32" enable-background="new 0 0 32 32" viewBox="0 0 32 32" id="temperature"><path d="M4.344 5.758C4.539 5.953 4.795 6.05 5.051 6.05s.513-.098.708-.293c.39-.391.39-1.024-.001-1.414L5.05 3.636c-.391-.39-1.024-.391-1.415.001-.39.391-.39 1.024.001 1.414L4.344 5.758zM4.343 14.242L3.636 14.95c-.391.391-.391 1.024 0 1.415.195.195.451.292.707.292s.512-.098.707-.293l.707-.708c.391-.391.391-1.024 0-1.415C5.366 13.852 4.733 13.852 4.343 14.242zM10 4c.553 0 1-.448 1-1V2c0-.552-.447-1-1-1S9 1.448 9 2v1C9 3.552 9.447 4 10 4zM16 10.001C16.001 10.553 16.448 11 17 11h.001l1-.001c.553 0 1-.449.999-1.001C18.999 9.447 18.552 9 18 9h-.001l-1 .001C16.446 9.001 15.999 9.449 16 10.001zM14.95 6.05c.256 0 .513-.098.708-.293l.706-.708c.39-.391.39-1.024-.002-1.415-.391-.39-1.023-.39-1.414.001l-.706.708c-.39.391-.39 1.024.002 1.415C14.439 5.953 14.694 6.05 14.95 6.05zM4 9.999c0-.552-.448-1-1-1 0 0 0 0-.001 0l-1 0C1.447 9 1 9.448 1 10s.448 1 1 1c0 0 0 0 .001 0l1 0C3.553 10.999 4 10.551 4 9.999zM9.999 16L9.999 16c-.554 0-1.001.449-1 1.001l.001 1C9.001 18.553 9.448 19 10 19h.001c.553 0 1-.449.999-1.001l-.001-1C10.998 16.447 10.551 16 9.999 16z"></path><path d="M30,10c0.553,0,1-0.448,1-1s-0.447-1-1-1h-2V6h2c0.553,0,1-0.448,1-1s-0.447-1-1-1h-2c-0.048,0-0.088,0.021-0.134,0.027
			C27.429,2.293,25.868,1,24,1c-2.206,0-4,1.794-4,4v13.262c-1.864,1.302-3,3.45-3,5.738c0,3.86,3.141,7,7,7s7-3.14,7-7
			c0-2.288-1.136-4.436-3-5.738V14h2c0.553,0,1-0.448,1-1s-0.447-1-1-1h-2v-2H30z M29,24c0,2.757-2.243,5-5,5s-5-2.243-5-5
			c0-1.774,0.958-3.432,2.501-4.325C21.81,19.496,22,19.167,22,18.81V5c0-1.103,0.897-2,2-2s2,0.897,2,2v13.81
			c0,0.357,0.19,0.687,0.499,0.865C28.042,20.568,29,22.226,29,24z"></path><path d="M25 20.305V9c0-.552-.447-1-1-1s-1 .448-1 1v11.256c-1.717.418-3 1.958-3 3.802 0 2.163 1.76 3.923 3.923 3.923s3.923-1.76 3.923-3.923C27.846 22.271 26.638 20.776 25 20.305zM15.655 14.242c-.391-.39-1.023-.39-1.414.001-.39.391-.39 1.024.002 1.415l.708.707c.195.195.45.292.706.292s.513-.098.708-.293c.39-.391.39-1.024-.002-1.415L15.655 14.242zM10 5c-2.757 0-5 2.243-5 5s2.243 5 5 5 5-2.243 5-5S12.757 5 10 5z"></path></svg>