<svg xmlns="http://www.w3.org/2000/svg" enable-background="new 0 0 50 50" viewBox="0 0 50 50" id="electric-hazard"><path d="M21.6792,30.48193c0.17285,0.32715,0.5127,0.53223,0.88379,0.53223h3.07422l-2.48535,3.99023
		c-0.29199,0.46875-0.14844,1.08496,0.32031,1.37695c0.46699,0.29187,1.08492,0.14936,1.37695-0.32031l3.4375-5.51855
		c0.19238-0.30762,0.20215-0.69629,0.02539-1.01367c-0.17578-0.31738-0.51074-0.51465-0.87402-0.51465h-2.9834l2.25391-3.30566
		c0.31152-0.45605,0.19336-1.0791-0.2627-1.38965c-0.45703-0.30957-1.07813-0.19434-1.38965,0.2627l-3.31934,4.86914
		C21.52783,29.75732,21.50537,30.15381,21.6792,30.48193z"></path><path d="M27.71631,5.36572c-0.56738-0.98145-1.58203-1.56738-2.71582-1.56738c-1.13477,0-2.14941,0.58594-2.71582,1.56738
		L1.42334,41.49854c-0.56641,0.98145-0.56641,2.15332,0,3.13477c0.56641,0.98242,1.58203,1.56836,2.71582,1.56836h41.72168
		c2.41292,0,3.92336-2.61075,2.71582-4.70313L27.71631,5.36572z M45.86084,44.20166H4.13916
		c-0.87542,0-1.42127-0.94444-0.9834-1.70313L24.01709,6.36572c0.2959-0.5127,0.78613-0.56738,0.9834-0.56738
		s0.6875,0.05469,0.9834,0.56738l20.86035,36.13281C47.28183,43.25674,46.73682,44.20166,45.86084,44.20166z"></path><path d="M25.8667,10.70557c-0.35742-0.61914-1.375-0.61914-1.73242,0L6.97217,40.43018c-0.38339,0.66412,0.09469,1.5,0.86621,1.5
		h34.32324c0.00684,0.00098,0.01465,0.00098,0.01953,0c0.55273,0,1-0.44727,1-1c0-0.24902-0.09082-0.47656-0.24121-0.65234
		L25.8667,10.70557z M9.5708,39.93018l15.42969-26.72461L40.4292,39.93018H9.5708z"></path></svg>